<svg width="107" height="107" viewBox="0 0 107 107" fill="none" xmlns="http://www.w3.org/2000/svg">
<circle cx="53.5" cy="53.5096" r="51.5" fill="#EFEFEF" stroke="black" stroke-width="3"/>
<path d="M41.9647 78.1237C41.347 77.5058 41 76.6679 41 75.7941C41 74.9204 41.347 74.0825 41.9647 73.4646L59.405 56.0243L41.9647 38.584C41.3645 37.9626 41.0324 37.1303 41.0399 36.2663C41.0474 35.4024 41.3939 34.576 42.0049 33.9651C42.6158 33.3542 43.4422 33.0076 44.3061 33.0001C45.1701 32.9926 46.0024 33.3247 46.6238 33.9249L66.3936 53.6948C67.0114 54.3127 67.3584 55.1506 67.3584 56.0243C67.3584 56.898 67.0114 57.736 66.3936 58.3539L46.6238 78.1237C46.0059 78.7414 45.168 79.0884 44.2943 79.0884C43.4206 79.0884 42.5826 78.7414 41.9647 78.1237Z" fill="#0D0D0D"/>
</svg>
