<svg width="62" height="21" viewBox="0 0 62 21" fill="none" xmlns="http://www.w3.org/2000/svg">
<path d="M6.1125 16.264C4.99783 16.264 4.0445 16.0953 3.2525 15.758C2.47517 15.4207 1.88117 14.9293 1.4705 14.284C1.05983 13.624 0.8545 12.8027 0.8545 11.82V10.984H3.6925V11.82C3.6925 12.48 3.8905 12.986 4.2865 13.338C4.69717 13.6753 5.30583 13.844 6.1125 13.844C6.88983 13.844 7.4765 13.58 7.8725 13.052C8.2685 12.524 8.4665 11.7833 8.4665 10.83V0.907999H11.3485V10.83C11.3485 12.0327 11.1432 13.0373 10.7325 13.844C10.3218 14.6507 9.72783 15.2593 8.9505 15.67C8.17317 16.066 7.22717 16.264 6.1125 16.264ZM14.6036 16V0.907999H19.1136L21.4896 9.312C21.5776 9.60533 21.6656 9.93533 21.7536 10.302C21.8416 10.6687 21.9223 11.0207 21.9956 11.358C22.0836 11.6953 22.1496 11.9887 22.1936 12.238H22.3696C22.399 12.018 22.443 11.7467 22.5016 11.424C22.5603 11.1013 22.6263 10.7567 22.6996 10.39C22.7876 10.0087 22.883 9.642 22.9856 9.29L25.3616 0.907999H29.8276V16H26.9676V8.366C26.9676 7.69133 26.975 7.01667 26.9896 6.342C27.0043 5.66733 27.019 5.088 27.0336 4.604C27.063 4.12 27.0776 3.834 27.0776 3.746H26.9016C26.8723 3.878 26.799 4.164 26.6816 4.604C26.5643 5.044 26.4396 5.52067 26.3076 6.034C26.1756 6.54733 26.0583 6.98733 25.9556 7.354L23.4696 16H20.8296L18.3436 7.376C18.2556 7.068 18.153 6.70133 18.0356 6.276C17.933 5.836 17.823 5.38867 17.7056 4.934C17.603 4.47933 17.5076 4.08333 17.4196 3.746H17.2436C17.2583 4.142 17.273 4.61867 17.2876 5.176C17.3023 5.71867 17.317 6.276 17.3316 6.848C17.3463 7.40533 17.3536 7.91133 17.3536 8.366V16H14.6036ZM32.9241 2.646V0.0939989H35.6081V2.646H32.9241ZM32.9241 16V4.428H35.6081V16H32.9241ZM40.3811 20.004C39.8678 20.004 39.3838 19.9013 38.9291 19.696C38.4744 19.4907 38.1078 19.1827 37.8291 18.772C37.5504 18.376 37.4111 17.8847 37.4111 17.298C37.4111 16.6527 37.5944 16.1467 37.9611 15.78C38.3424 15.3987 38.7604 15.1127 39.2151 14.922C38.8778 14.746 38.5991 14.5113 38.3791 14.218C38.1738 13.9247 38.0711 13.5727 38.0711 13.162C38.0711 12.6047 38.2764 12.1647 38.6871 11.842C39.0978 11.5047 39.5671 11.2847 40.0951 11.182C39.5524 10.8447 39.1344 10.412 38.8411 9.884C38.5624 9.356 38.4231 8.75467 38.4231 8.08C38.4231 7.27333 38.6138 6.584 38.9951 6.012C39.3911 5.42533 39.9631 4.97067 40.7111 4.648C41.4591 4.32533 42.3611 4.164 43.4171 4.164C43.8424 4.164 44.2531 4.19333 44.6491 4.252C45.0451 4.31067 45.4044 4.39867 45.7271 4.516C46.2404 4.208 46.5924 3.86333 46.7831 3.482C46.9738 3.086 47.0764 2.76333 47.0911 2.514H49.7091C49.7091 3.02733 49.6064 3.482 49.4011 3.878C49.2104 4.274 48.9391 4.604 48.5871 4.868C48.2351 5.11733 47.8098 5.30067 47.3111 5.418C47.6778 5.74067 47.9564 6.12933 48.1471 6.584C48.3378 7.03867 48.4331 7.53733 48.4331 8.08C48.4331 8.88667 48.2424 9.58333 47.8611 10.17C47.4944 10.7567 46.9444 11.2113 46.2111 11.534C45.4924 11.8567 44.6051 12.018 43.5491 12.018H41.7671C41.4591 12.018 41.2171 12.084 41.0411 12.216C40.8798 12.348 40.7991 12.5313 40.7991 12.766C40.7991 12.9567 40.8724 13.1253 41.0191 13.272C41.1804 13.4187 41.4004 13.492 41.6791 13.492H46.7391C47.6044 13.492 48.3158 13.778 48.8731 14.35C49.4451 14.9073 49.7311 15.626 49.7311 16.506C49.7311 17.166 49.5551 17.76 49.2031 18.288C48.8658 18.816 48.3891 19.234 47.7731 19.542C47.1571 19.85 46.4384 20.004 45.6171 20.004H40.3811ZM41.3491 18.068H45.5951C45.8738 18.068 46.1158 18.0167 46.3211 17.914C46.5411 17.826 46.7098 17.694 46.8271 17.518C46.9591 17.342 47.0251 17.144 47.0251 16.924C47.0251 16.5427 46.9004 16.2567 46.6511 16.066C46.4164 15.8753 46.1231 15.78 45.7711 15.78H41.3491C40.9971 15.78 40.7038 15.8827 40.4691 16.088C40.2344 16.308 40.1171 16.5867 40.1171 16.924C40.1171 17.2613 40.2271 17.5327 40.4471 17.738C40.6818 17.958 40.9824 18.068 41.3491 18.068ZM43.4391 10.126C44.2164 10.126 44.7958 9.95 45.1771 9.598C45.5731 9.23133 45.7711 8.72533 45.7711 8.08C45.7711 7.43467 45.5731 6.936 45.1771 6.584C44.7958 6.232 44.2164 6.056 43.4391 6.056C42.6618 6.056 42.0751 6.232 41.6791 6.584C41.2978 6.936 41.1071 7.43467 41.1071 8.08C41.1071 8.50533 41.1878 8.872 41.3491 9.18C41.5251 9.488 41.7818 9.72267 42.1191 9.884C42.4711 10.0453 42.9111 10.126 43.4391 10.126ZM55.9752 16.264C55.1392 16.264 54.4058 16.176 53.7752 16C53.1445 15.8093 52.6165 15.5527 52.1912 15.23C51.7658 14.9073 51.4432 14.5333 51.2232 14.108C51.0178 13.668 50.9152 13.1913 50.9152 12.678C50.9152 12.6047 50.9152 12.5387 50.9152 12.48C50.9298 12.4213 50.9372 12.3773 50.9372 12.348H53.5772C53.5772 12.3773 53.5772 12.4067 53.5772 12.436C53.5772 12.4653 53.5772 12.4947 53.5772 12.524C53.5918 12.92 53.7165 13.2427 53.9512 13.492C54.1858 13.7267 54.4938 13.8953 54.8752 13.998C55.2565 14.1007 55.6598 14.152 56.0852 14.152C56.4665 14.152 56.8258 14.1153 57.1632 14.042C57.5152 13.954 57.8012 13.822 58.0212 13.646C58.2558 13.4553 58.3732 13.2133 58.3732 12.92C58.3732 12.5387 58.2265 12.2453 57.9332 12.04C57.6398 11.8347 57.2512 11.666 56.7672 11.534C56.2978 11.402 55.7918 11.2627 55.2492 11.116C54.7652 10.984 54.2812 10.8373 53.7972 10.676C53.3132 10.5147 52.8732 10.3093 52.4772 10.06C52.0958 9.81067 51.7805 9.488 51.5312 9.092C51.2965 8.696 51.1792 8.20467 51.1792 7.618C51.1792 7.046 51.3038 6.54733 51.5532 6.122C51.8025 5.69667 52.1472 5.34467 52.5872 5.066C53.0272 4.77267 53.5478 4.55267 54.1492 4.406C54.7505 4.25933 55.4032 4.186 56.1072 4.186C56.7965 4.186 57.4198 4.25933 57.9772 4.406C58.5492 4.55267 59.0405 4.76533 59.4512 5.044C59.8765 5.308 60.1992 5.638 60.4192 6.034C60.6538 6.41533 60.7712 6.84067 60.7712 7.31C60.7712 7.41267 60.7638 7.51533 60.7492 7.618C60.7492 7.72067 60.7492 7.77933 60.7492 7.794H58.1312V7.64C58.1312 7.36133 58.0432 7.12667 57.8672 6.936C57.7058 6.73067 57.4638 6.56933 57.1412 6.452C56.8332 6.33467 56.4445 6.276 55.9752 6.276C55.6232 6.276 55.3152 6.30533 55.0512 6.364C54.7872 6.42267 54.5672 6.50333 54.3912 6.606C54.2298 6.70867 54.1052 6.826 54.0172 6.958C53.9292 7.09 53.8852 7.23667 53.8852 7.398C53.8852 7.67667 53.9952 7.89667 54.2152 8.058C54.4352 8.21933 54.7285 8.35867 55.0952 8.476C55.4765 8.59333 55.8872 8.718 56.3272 8.85C56.8552 8.99667 57.3978 9.15067 57.9552 9.312C58.5125 9.45867 59.0258 9.64933 59.4952 9.884C59.9792 10.1187 60.3678 10.4487 60.6612 10.874C60.9545 11.2993 61.1012 11.864 61.1012 12.568C61.1012 13.2427 60.9692 13.822 60.7052 14.306C60.4558 14.7753 60.0965 15.1567 59.6272 15.45C59.1725 15.7287 58.6298 15.934 57.9992 16.066C57.3832 16.198 56.7085 16.264 55.9752 16.264Z" fill="white"/>
</svg>
