<svg width="96" height="97" viewBox="0 0 96 97" fill="none" xmlns="http://www.w3.org/2000/svg">
<path d="M64.76 8.5H31.24C16.68 8.5 8 17.18 8 31.74V65.22C8 79.82 16.68 88.5 31.24 88.5H64.72C79.28 88.5 87.96 79.82 87.96 65.26V31.74C88 17.18 79.32 8.5 64.76 8.5ZM32.72 67.58H32.44C28.56 67.22 24.92 65.42 22.2 62.54C15.8 55.82 15.8 44.9 22.2 38.18L30.96 28.98C32.4731 27.3661 34.3006 26.0792 36.3301 25.1987C38.3595 24.3181 40.5478 23.8625 42.76 23.86C47.24 23.86 51.44 25.66 54.56 28.98C60.96 35.7 60.96 46.62 54.56 53.34L50.2 57.94C49.04 59.14 47.16 59.18 45.96 58.06C45.3868 57.5109 45.0528 56.7581 45.0303 55.9646C45.0079 55.1711 45.2987 54.4007 45.84 53.82L50.2 49.22C54.44 44.78 54.44 37.54 50.2 33.14C46.24 28.98 39.28 28.98 35.28 33.14L26.52 42.34C22.28 46.78 22.28 54.02 26.52 58.42C28.24 60.26 30.56 61.38 33 61.62C34.64 61.78 35.84 63.26 35.68 64.9C35.6101 65.6356 35.2677 66.3184 34.72 66.8143C34.1722 67.3102 33.4589 67.5833 32.72 67.58ZM73.8 58.86L65.04 68.06C63.5269 69.6739 61.6994 70.9608 59.6699 71.8413C57.6405 72.7219 55.4522 73.1775 53.24 73.18C48.76 73.18 44.56 71.38 41.44 68.06C35.04 61.34 35.04 50.42 41.44 43.7L45.8 39.1C46.96 37.9 48.84 37.86 50.04 38.98C51.24 40.14 51.28 42.02 50.16 43.22L45.8 47.82C41.56 52.26 41.56 59.5 45.8 63.9C49.76 68.06 56.72 68.1 60.72 63.9L69.48 54.7C73.72 50.26 73.72 43.02 69.48 38.62C67.76 36.78 65.44 35.66 63 35.42C62.2102 35.3392 61.4846 34.9486 60.9823 34.3338C60.4799 33.7189 60.2418 32.9301 60.32 32.14C60.48 30.5 61.92 29.26 63.6 29.46C67.48 29.86 71.12 31.62 73.84 34.5C80.2 41.18 80.2 52.14 73.8 58.86Z" fill="white"/>
</svg>
