<svg width="386" height="50" viewBox="0 0 386 50" fill="none" xmlns="http://www.w3.org/2000/svg">
<path d="M0.645732 13.8995C0.645732 16.8451 3.03355 19.2329 5.97906 19.2329C8.92458 19.2329 11.3124 16.8451 11.3124 13.8995C11.3124 10.954 8.92458 8.56621 5.97906 8.56621C3.03355 8.56621 0.645732 10.954 0.645732 13.8995ZM372.153 13.8995C372.153 16.8451 374.541 19.2329 377.487 19.2329C380.432 19.2329 382.82 16.8451 382.82 13.8995C382.82 10.954 380.432 8.56621 377.487 8.56621C374.541 8.56621 372.153 10.954 372.153 13.8995ZM186.399 23.2023C186.399 26.1478 188.787 28.5356 191.733 28.5356C194.678 28.5356 197.066 26.1478 197.066 23.2023C197.066 20.2568 194.678 17.869 191.733 17.869C188.787 17.869 186.399 20.2568 186.399 23.2023ZM186.399 6.02798C186.399 8.9735 188.787 11.3613 191.733 11.3613C194.678 11.3613 197.066 8.9735 197.066 6.02798C197.066 3.08247 194.678 0.694651 191.733 0.694651C188.787 0.694651 186.399 3.08247 186.399 6.02798ZM5.97906 14.8995H6.9886V12.8995H5.97906V14.8995ZM9.00766 14.8995H11.0267V12.8995H9.00766V14.8995ZM13.0458 14.8995H15.0648V12.8995H13.0458V14.8995ZM17.0839 14.8995H19.103V12.8995H17.0839V14.8995ZM21.122 14.8995H23.1411V12.8995H21.122V14.8995ZM25.1602 14.8995H27.1792V12.8995H25.1602V14.8995ZM29.1983 14.8995H31.2173V12.8995H29.1983V14.8995ZM33.2364 14.8995H35.2555V12.8995H33.2364V14.8995ZM37.2745 14.8995H39.2936V12.8995H37.2745V14.8995ZM41.3127 14.8995H43.3317V12.8995H41.3127V14.8995ZM45.3508 14.8995H47.3698V12.8995H45.3508V14.8995ZM49.3889 14.8995H51.408V12.8995H49.3889V14.8995ZM53.427 14.8995H55.4461V12.8995H53.427V14.8995ZM57.4652 14.8995H59.4842V12.8995H57.4652V14.8995ZM61.5033 14.8995H63.5223V12.8995H61.5033V14.8995ZM65.5414 14.8995H67.5605V12.8995H65.5414V14.8995ZM69.5795 14.8995H71.5986V12.8995H69.5795V14.8995ZM73.6177 14.8995H75.6367V12.8995H73.6177V14.8995ZM77.6558 14.8995H79.6749V12.8995H77.6558V14.8995ZM81.6939 14.8995H83.713V12.8995H81.6939V14.8995ZM85.732 14.8995H87.7511V12.8995H85.732V14.8995ZM89.7702 14.8995H91.7892V12.8995H89.7702V14.8995ZM93.8083 14.8995H95.8274V12.8995H93.8083V14.8995ZM97.8464 14.8995H99.8655V12.8995H97.8464V14.8995ZM101.885 14.8995H103.904V12.8995H101.885V14.8995ZM105.923 14.8995H107.942V12.8995H105.923V14.8995ZM109.961 14.8995H111.98V12.8995H109.961V14.8995ZM113.999 14.8995H116.018V12.8995H113.999V14.8995ZM118.037 14.8995H120.056V12.8995H118.037V14.8995ZM122.075 14.8995H124.094V12.8995H122.075V14.8995ZM126.113 14.8995H128.132V12.8995H126.113V14.8995ZM130.152 14.8995H132.171V12.8995H130.152V14.8995ZM134.19 14.8995H136.209V12.8995H134.19V14.8995ZM138.228 14.8995H140.247V12.8995H138.228V14.8995ZM142.266 14.8995H144.285V12.8995H142.266V14.8995ZM146.304 14.8995H148.323V12.8995H146.304V14.8995ZM150.342 14.8995H152.361V12.8995H150.342V14.8995ZM154.38 14.8995H156.399V12.8995H154.38V14.8995ZM158.418 14.8995H160.437V12.8995H158.418V14.8995ZM162.456 14.8995H164.475V12.8995H162.456V14.8995ZM166.495 14.8995H168.514V12.8995H166.495V14.8995ZM170.533 14.8995H172.552V12.8995H170.533V14.8995ZM174.571 14.8995H176.59V12.8995H174.571V14.8995ZM178.609 14.8995H180.628V12.8995H178.609V14.8995ZM182.647 14.8995H184.666V12.8995H182.647V14.8995ZM186.685 14.8995H188.704V12.8995H186.685V14.8995ZM190.723 14.8995H191.733V12.8995H190.723V14.8995ZM191.733 14.8995H192.742V12.8995H191.733V14.8995ZM194.761 14.8995H196.78V12.8995H194.761V14.8995ZM198.8 14.8995H200.819V12.8995H198.8V14.8995ZM202.838 14.8995H204.857V12.8995H202.838V14.8995ZM206.876 14.8995H208.895V12.8995H206.876V14.8995ZM210.914 14.8995H212.933V12.8995H210.914V14.8995ZM214.952 14.8995H216.971V12.8995H214.952V14.8995ZM218.99 14.8995H221.009V12.8995H218.99V14.8995ZM223.028 14.8995H225.047V12.8995H223.028V14.8995ZM227.066 14.8995H229.085V12.8995H227.066V14.8995ZM231.105 14.8995H233.124V12.8995H231.105V14.8995ZM235.143 14.8995H237.162V12.8995H235.143V14.8995ZM239.181 14.8995H241.2V12.8995H239.181V14.8995ZM243.219 14.8995H245.238V12.8995H243.219V14.8995ZM247.257 14.8995H249.276V12.8995H247.257V14.8995ZM251.295 14.8995H253.314V12.8995H251.295V14.8995ZM255.333 14.8995H257.352V12.8995H255.333V14.8995ZM259.371 14.8995H261.39V12.8995H259.371V14.8995ZM263.41 14.8995H265.429V12.8995H263.41V14.8995ZM267.448 14.8995H269.467V12.8995H267.448V14.8995ZM271.486 14.8995H273.505V12.8995H271.486V14.8995ZM275.524 14.8995H277.543V12.8995H275.524V14.8995ZM279.562 14.8995H281.581V12.8995H279.562V14.8995ZM283.6 14.8995H285.619V12.8995H283.6V14.8995ZM287.638 14.8995H289.657V12.8995H287.638V14.8995ZM291.676 14.8995H293.696V12.8995H291.676V14.8995ZM295.715 14.8995H297.734V12.8995H295.715V14.8995ZM299.753 14.8995H301.772V12.8995H299.753V14.8995ZM303.791 14.8995H305.81V12.8995H303.791V14.8995ZM307.829 14.8995H309.848V12.8995H307.829V14.8995ZM311.867 14.8995H313.886V12.8995H311.867V14.8995ZM315.905 14.8995H317.924V12.8995H315.905V14.8995ZM319.943 14.8995H321.962V12.8995H319.943V14.8995ZM323.981 14.8995H326.001V12.8995H323.981V14.8995ZM328.02 14.8995H330.039V12.8995H328.02V14.8995ZM332.058 14.8995H334.077V12.8995H332.058V14.8995ZM336.096 14.8995H338.115V12.8995H336.096V14.8995ZM340.134 14.8995H342.153V12.8995H340.134V14.8995ZM344.172 14.8995H346.191V12.8995H344.172V14.8995ZM348.21 14.8995H350.229V12.8995H348.21V14.8995ZM352.248 14.8995H354.267V12.8995H352.248V14.8995ZM356.286 14.8995H358.305V12.8995H356.286V14.8995ZM360.325 14.8995H362.344V12.8995H360.325V14.8995ZM364.363 14.8995H366.382V12.8995H364.363V14.8995ZM368.401 14.8995H370.42V12.8995H368.401V14.8995ZM372.439 14.8995H374.458V12.8995H372.439V14.8995ZM376.477 14.8995H377.487V12.8995H376.477V14.8995ZM190.733 6.02798V7.10138H192.733V6.02798H190.733ZM190.733 9.24817V11.395H192.733V9.24817H190.733ZM190.733 13.5417V15.6885H192.733V13.5417H190.733ZM190.733 17.8353V19.9821H192.733V17.8353H190.733ZM190.733 22.1289V23.2023H192.733V22.1289H190.733Z" fill="black"/>
<path d="M5.89943 39.7678C5.32343 39.7678 4.83143 39.6838 4.42343 39.5158C4.01543 39.3398 3.68343 39.0798 3.42743 38.7358C3.17143 38.3838 2.98343 37.9398 2.86343 37.4038C2.74343 36.8678 2.68343 36.2318 2.68343 35.4958C2.68343 34.7678 2.74343 34.1358 2.86343 33.5998C2.98343 33.0638 3.17143 32.6238 3.42743 32.2798C3.68343 31.9278 4.01543 31.6678 4.42343 31.4998C4.83143 31.3238 5.32343 31.2358 5.89943 31.2358C6.47543 31.2358 6.96343 31.3238 7.36343 31.4998C7.77143 31.6678 8.10343 31.9278 8.35943 32.2798C8.61543 32.6238 8.80343 33.0638 8.92343 33.5998C9.04343 34.1358 9.10343 34.7678 9.10343 35.4958C9.10343 36.2318 9.04343 36.8678 8.92343 37.4038C8.80343 37.9398 8.61543 38.3838 8.35943 38.7358C8.10343 39.0798 7.77143 39.3398 7.36343 39.5158C6.96343 39.6838 6.47543 39.7678 5.89943 39.7678ZM5.89943 38.3398C6.21943 38.3398 6.46743 38.2558 6.64343 38.0878C6.82743 37.9118 6.95143 37.6518 7.01543 37.3078C7.08743 36.9558 7.12343 36.5118 7.12343 35.9758V35.0398C7.12343 34.4958 7.08743 34.0478 7.01543 33.6958C6.95143 33.3438 6.82743 33.0838 6.64343 32.9158C6.46743 32.7478 6.21943 32.6638 5.89943 32.6638C5.57943 32.6638 5.32743 32.7478 5.14343 32.9158C4.96743 33.0838 4.84343 33.3438 4.77143 33.6958C4.69943 34.0398 4.66343 34.4838 4.66343 35.0278V35.9518C4.66343 36.4958 4.69943 36.9438 4.77143 37.2958C4.84343 37.6478 4.96743 37.9118 5.14343 38.0878C5.32743 38.2558 5.57943 38.3398 5.89943 38.3398Z" fill="black"/>
<path d="M188.446 43.6238V42.0758H190.414V37.6718H188.434V36.5078C188.754 36.4838 189.102 36.4158 189.478 36.3038C189.862 36.1918 190.238 36.0558 190.606 35.8958C190.982 35.7278 191.318 35.5518 191.614 35.3678H192.382V42.0758H194.242V43.6238H188.446Z" fill="black"/>
<path d="M373.868 39.6238V39.1318C373.868 38.7798 373.936 38.4558 374.072 38.1598C374.208 37.8638 374.392 37.5878 374.624 37.3318C374.856 37.0758 375.112 36.8318 375.392 36.5998C375.68 36.3598 375.968 36.1318 376.256 35.9158C376.584 35.6758 376.892 35.4438 377.18 35.2198C377.468 34.9958 377.7 34.7598 377.876 34.5118C378.06 34.2638 378.152 33.9878 378.152 33.6838C378.152 33.5238 378.112 33.3718 378.032 33.2278C377.96 33.0758 377.84 32.9518 377.672 32.8558C377.512 32.7598 377.296 32.7118 377.024 32.7118C376.752 32.7118 376.524 32.7638 376.34 32.8678C376.156 32.9638 376.016 33.0998 375.92 33.2758C375.824 33.4518 375.776 33.6598 375.776 33.8998V34.2598H373.952C373.944 34.2118 373.936 34.1598 373.928 34.1038C373.928 34.0398 373.928 33.9678 373.928 33.8878C373.928 33.3118 374.06 32.8278 374.324 32.4358C374.588 32.0438 374.96 31.7478 375.44 31.5478C375.928 31.3398 376.508 31.2358 377.18 31.2358C377.692 31.2358 378.132 31.3038 378.5 31.4398C378.876 31.5758 379.184 31.7598 379.424 31.9918C379.664 32.2238 379.84 32.4878 379.952 32.7838C380.072 33.0718 380.132 33.3718 380.132 33.6838C380.132 34.0598 380.064 34.3998 379.928 34.7038C379.792 35.0078 379.604 35.2958 379.364 35.5678C379.124 35.8318 378.844 36.0878 378.524 36.3358C378.204 36.5758 377.86 36.8198 377.492 37.0678C377.308 37.1958 377.14 37.3158 376.988 37.4278C376.844 37.5318 376.728 37.6238 376.64 37.7038C376.552 37.7838 376.488 37.8558 376.448 37.9198H380.204V39.6238H373.868Z" fill="black"/>
</svg>
