<svg width="64" height="66" viewBox="0 0 64 66" fill="none" xmlns="http://www.w3.org/2000/svg">
<circle cx="32" cy="32.5" r="31" stroke="white" stroke-width="2"/>
<path d="M20.5726 44V22.048H24.7326V44H20.5726ZM29.2519 44V27.168H32.5159L32.8359 29.408H33.0599C33.4439 28.896 33.8919 28.448 34.4039 28.064C34.9372 27.6587 35.5345 27.3493 36.1959 27.136C36.8785 26.9013 37.6252 26.784 38.4359 26.784C39.5025 26.784 40.4412 26.976 41.2519 27.36C42.0839 27.744 42.7345 28.3627 43.2039 29.216C43.6732 30.0693 43.9079 31.2107 43.9079 32.64V44H39.9719V33.344C39.9719 32.7467 39.8972 32.256 39.7479 31.872C39.6199 31.4667 39.4172 31.1467 39.1399 30.912C38.8839 30.656 38.5639 30.4747 38.1799 30.368C37.7959 30.2613 37.3692 30.208 36.8999 30.208C36.1959 30.208 35.5559 30.3787 34.9799 30.72C34.4252 31.0613 33.9772 31.5307 33.6359 32.128C33.3159 32.7253 33.1559 33.4187 33.1559 34.208V44H29.2519Z" fill="white"/>
</svg>
